# Blender v2.78 (sub 0) OBJ File: ''
# www.blender.org
mtllib kubikiribocho.mtl
o Cube_Cube.002
v -12.129848 -151.612885 12.133086
v -12.129848 -183.878250 -12.133195
v -12.129848 -183.878250 12.133077
v -12.129848 -151.612885 -12.133185
v 12.136424 -183.878250 -12.133195
v 12.136424 -151.612885 -12.133185
v 12.136424 -183.878250 12.133077
v 12.136424 -151.612885 12.133086
v 8.722474 -151.612885 8.719136
v -8.715898 -125.015007 8.719146
v -8.715898 -151.612885 8.719136
v -8.715898 -151.612885 -8.719235
v 8.722474 -151.612885 -8.719235
v -8.715898 -125.015007 -8.719226
v 12.593788 -125.015007 -12.590540
v 8.722474 -125.015007 -8.719226
v 8.722474 -125.015007 8.719146
v 12.593788 -92.413620 12.590469
v 12.593788 -125.015007 12.590460
v -12.587212 -125.015007 -12.590540
v -12.587212 -125.015007 12.590460
v -8.723559 -92.413620 8.726817
v -12.587212 -92.413620 12.590469
v -12.587212 -92.413620 -12.590530
v 12.593788 -92.413620 -12.590530
v 8.730136 -92.413620 -8.726878
v 8.730136 -63.611916 8.726827
v 8.730136 -92.413620 8.726817
v -8.723559 -92.413620 -8.726878
v 8.730136 -63.611916 -8.726869
v 12.564670 -63.611923 12.561360
v -8.723559 -63.611916 -8.726869
v -8.723559 -63.611916 8.726827
v -12.558093 -31.010523 12.561372
v -12.558093 -63.611923 12.561360
v -12.558093 -63.611908 -12.561402
v 12.564670 -63.611908 -12.561402
v 12.564670 -31.010515 -12.561391
v 8.751861 -31.010523 8.748563
v 12.564670 -31.010523 12.561372
v -12.558093 -31.010515 -12.561391
v -8.745284 -31.010523 8.748563
v -8.745284 -9.808212 -8.748576
v -8.745284 -31.010515 -8.748582
v 8.751861 -31.010515 -8.748582
v 8.751861 -9.808216 8.748569
v -11.297266 -9.808218 11.300550
v -8.745284 -9.808216 8.748569
v 8.751861 -9.808212 -8.748576
v 11.303843 -9.808210 -11.300558
v 11.303843 11.394086 11.300558
v 11.303843 -9.808218 11.300550
v -11.297266 -9.808210 -11.300558
v -15.167727 11.394084 15.171020
v -11.297266 11.394086 11.300558
v -11.297266 11.394094 -11.300550
v 11.303843 11.394094 -11.300550
v -15.167727 21.038532 -15.171008
v 15.174304 40.546604 -15.171002
v 15.174304 21.038532 -15.171008
v 15.174304 11.394095 -15.171012
v 15.174304 11.394084 15.171020
v -15.167727 11.394095 -15.171012
v -15.167727 40.546604 -15.171002
v 15.174304 40.546589 15.171029
v 15.174304 21.038525 15.171023
v -15.167727 21.038525 15.171023
v -15.167727 40.546589 15.171029
v -11.464270 21.038525 17.171024
v 11.470846 11.394095 -17.171013
v -11.464270 11.394084 17.171021
v -11.464270 21.038509 53.171024
v 11.470846 21.038525 17.171024
v 11.470846 11.394084 17.171021
v -11.464270 21.038532 -17.171009
v -11.464270 11.394107 -53.171017
v -11.464270 11.394095 -17.171013
v 11.470846 21.038532 -17.171009
v 11.470846 21.038548 -53.171009
v 11.470846 11.394107 -53.171017
v -11.464270 21.038548 -53.171009
v 11.470846 11.394073 53.171017
v -11.464270 11.394073 53.171017
v 11.470846 21.038509 53.171024
v -6.068759 84.241562 -36.387356
v -6.068759 20.480909 -50.599995
v -6.068759 20.480906 -36.387379
v -6.068759 84.241562 -50.599972
v 6.075243 20.480909 -50.599995
v 6.075243 84.241547 6.979339
v 6.075243 20.480879 50.600010
v 6.075243 20.480890 6.979317
v 6.075243 84.241531 50.600033
v -6.068759 20.480879 50.600010
v -6.068759 20.480890 6.979317
v -6.068759 84.241547 6.979339
v 6.075243 136.845184 -50.599957
v 6.075243 84.241562 -50.599972
v 6.075243 20.480906 -36.387379
v 6.075243 84.241562 -36.387356
v -6.068759 84.241531 50.600033
v 6.075243 442.308777 -36.387241
v 6.075243 136.845154 -36.387341
v -6.068759 136.845154 6.979355
v -6.068759 136.845154 -36.387341
v -6.068759 442.308777 -36.387241
v 6.075243 442.308777 6.979455
v 6.075243 136.845123 50.876156
v 6.075243 136.845154 6.979355
v -6.068759 136.845184 -50.599957
v 6.075243 442.308777 -50.599857
v -6.068759 442.308777 50.876255
v -6.068759 136.845123 50.876156
v 6.075243 442.308777 50.876255
v -6.068759 487.308777 48.873341
v -6.068759 442.308777 6.979455
v 6.075243 487.308777 48.873341
v -6.068759 487.308777 6.979469
v -6.068759 487.308777 -50.599842
v 6.075243 516.281128 -50.599834
v 6.075243 487.308777 -50.599842
v 6.075243 487.308777 6.979469
v -6.068759 442.308777 -50.599857
v 6.075243 505.694244 42.578442
v -6.068759 487.308777 -36.387226
v 6.075243 487.308777 -36.387226
v 6.075243 516.281128 -36.387218
v 6.075243 539.754333 -50.599827
v 6.075243 561.769348 -40.506996
v 6.075243 561.054016 -35.194984
v -6.068759 516.281128 -36.387218
v -6.068609 559.480591 -25.067335
v -6.068759 561.054016 -35.194984
v -6.068759 516.281128 6.979479
v -6.068759 505.694244 42.578442
v -6.068759 516.281128 -50.599834
v -6.068759 522.289978 33.089771
v 6.075243 516.281128 6.979479
v 6.075352 543.017090 9.982601
v 6.075353 535.734985 20.177721
v 6.075243 551.993164 -3.175733
v 6.075393 559.480591 -25.067335
v -6.068759 561.769348 -40.506996
v -6.068759 539.754333 -50.599827
v 6.075243 522.289978 33.089767
v -6.068648 535.734985 20.177721
v -6.068649 543.017090 9.982596
v -6.068759 551.993164 -3.175737
v -6.068759 562.866821 -56.466118
v 6.075243 562.866821 -56.466118
vt 0.7800 0.7984
vt 0.7126 0.7391
vt 0.7800 0.7391
vt 0.7828 0.7978
vt 0.8502 0.8572
vt 0.7828 0.8572
vt 0.7101 0.8009
vt 0.6427 0.7415
vt 0.7101 0.7415
vt 0.7834 0.7365
vt 0.8509 0.7950
vt 0.7834 0.7950
vt 0.7128 0.8013
vt 0.7803 0.8460
vt 0.7128 0.8460
vt 0.6522 0.8072
vt 0.6427 0.8009
vt 0.7464 0.9394
vt 0.7948 0.8913
vt 0.7948 0.9394
vt 0.6427 0.8455
vt 0.7006 0.8393
vt 0.7101 0.8455
vt 0.6522 0.8393
vt 0.7006 0.8072
vt 0.7256 0.7258
vt 0.7149 0.6865
vt 0.7256 0.6937
vt 0.7990 0.9391
vt 0.8475 0.8902
vt 0.8475 0.9391
vt 0.8996 0.9448
vt 0.8511 0.9938
vt 0.8511 0.9448
vt 0.8520 0.9403
vt 0.9004 0.8914
vt 0.9004 0.9403
vt 0.9249 0.7345
vt 0.8549 0.7945
vt 0.8549 0.7345
vt 0.7849 0.6865
vt 0.7741 0.6937
vt 0.7741 0.7258
vt 0.7149 0.7329
vt 0.7849 0.7329
vt 0.6412 0.6906
vt 0.6519 0.7298
vt 0.6412 0.7369
vt 0.9129 0.8772
vt 0.8529 0.8072
vt 0.9129 0.8072
vt 0.7416 0.4535
vt 0.8116 0.3944
vt 0.8116 0.4535
vt 0.8165 0.4729
vt 0.8864 0.4129
vt 0.8864 0.4729
vt 0.7946 0.9430
vt 0.7461 0.9960
vt 0.7461 0.9430
vt 0.7111 0.7369
vt 0.7004 0.6977
vt 0.7111 0.6906
vt 0.6519 0.6977
vt 0.7004 0.7298
vt 0.8722 0.6922
vt 0.9313 0.6852
vt 0.9206 0.6922
vt 0.6910 0.8614
vt 0.6425 0.9144
vt 0.6425 0.8614
vt 0.7991 0.9941
vt 0.8476 0.9419
vt 0.8476 0.9941
vt 0.6947 0.9139
vt 0.7432 0.8609
vt 0.7432 0.9139
vt 0.7885 0.7312
vt 0.8583 0.6722
vt 0.8583 0.7312
vt 0.9206 0.7243
vt 0.8615 0.7314
vt 0.8722 0.7243
vt 0.9313 0.7314
vt 0.8615 0.6852
vt 0.8584 0.6213
vt 0.7992 0.6283
vt 0.7886 0.6213
vt 0.6420 0.6872
vt 0.7118 0.6272
vt 0.7118 0.6872
vt 0.7118 0.5672
vt 0.6420 0.6272
vt 0.6420 0.5672
vt 0.7148 0.6838
vt 0.7846 0.6239
vt 0.7846 0.6838
vt 0.6437 0.9561
vt 0.6923 0.9171
vt 0.6923 0.9561
vt 0.7886 0.6676
vt 0.8478 0.6605
vt 0.8584 0.6676
vt 0.7992 0.6605
vt 0.8478 0.6283
vt 0.7353 0.5185
vt 0.7722 0.5115
vt 0.7675 0.5185
vt 0.6943 0.9561
vt 0.7429 0.9177
vt 0.7429 0.9561
vt 0.7407 0.9585
vt 0.6921 0.9975
vt 0.6921 0.9585
vt 0.6435 0.9975
vt 0.6435 0.9585
vt 0.6871 0.3864
vt 0.6452 0.4450
vt 0.6455 0.3861
vt 0.7675 0.5672
vt 0.7306 0.5743
vt 0.7353 0.5672
vt 0.7306 0.5115
vt 0.7722 0.5743
vt 0.7157 0.1219
vt 0.6422 0.1290
vt 0.6529 0.1219
vt 0.7355 0.3843
vt 0.6939 0.4432
vt 0.6939 0.3843
vt 0.7155 0.5792
vt 0.7735 0.6208
vt 0.7155 0.6208
vt 0.8033 0.4952
vt 0.7581 0.4633
vt 0.8033 0.4633
vt 0.8789 0.4918
vt 0.9331 0.5789
vt 0.8789 0.5477
vt 0.6529 0.0803
vt 0.7265 0.0732
vt 0.7157 0.0803
vt 0.7265 0.1290
vt 0.6422 0.0732
vt 0.7272 0.5636
vt 0.6429 0.5077
vt 0.7272 0.5077
vt 0.8903 0.5600
vt 0.9445 0.6471
vt 0.8903 0.6783
vt 0.8464 0.5962
vt 0.7922 0.5091
vt 0.8464 0.4779
vt 0.6938 0.4457
vt 0.7016 0.5039
vt 0.6466 0.4756
vt 0.7786 0.5720
vt 0.7889 0.5875
vt 0.7786 0.6207
vt 0.8732 0.5650
vt 0.8732 0.5091
vt 0.8635 0.5913
vt 0.8635 0.6471
vt 0.7162 0.0695
vt 0.7384 0.2484
vt 0.7116 0.3146
vt 0.7116 0.2471
vt 0.7111 0.2375
vt 0.7852 0.2012
vt 0.7954 0.2375
vt 0.6524 0.1327
vt 0.6446 0.3746
vt 0.6549 0.3615
vt 0.6446 0.3609
vt 0.7441 0.3129
vt 0.7709 0.2453
vt 0.7709 0.3116
vt 0.8048 0.0262
vt 0.7308 0.0625
vt 0.7205 0.0262
vt 0.7011 0.3430
vt 0.6833 0.3546
vt 0.6521 0.3429
vt 0.6607 0.3522
vt 0.6451 0.3454
vt 0.6475 0.3554
vt 0.7052 0.3154
vt 0.6784 0.2732
vt 0.7052 0.2732
vt 0.6524 0.0695
vt 0.7162 0.0033
vt 0.7945 0.0625
vt 0.7308 0.1274
vt 0.7049 0.2042
vt 0.6781 0.2704
vt 0.6781 0.2055
vt 0.6735 0.3184
vt 0.6472 0.2762
vt 0.6735 0.2762
vt 0.7162 0.1327
vt 0.6524 0.1989
vt 0.7214 0.2012
vt 0.7852 0.1363
vt 0.6734 0.2045
vt 0.6466 0.2721
vt 0.6466 0.2058
vt 0.3458 0.1226
vt 0.3044 0.0066
vt 0.3438 0.0064
vt 0.6385 0.1202
vt 0.6048 0.0034
vt 0.6385 0.0034
vt 0.1374 0.1217
vt 0.0181 0.0046
vt 0.1393 0.0055
vt 0.9597 0.0543
vt 0.9934 0.1697
vt 0.9597 0.1697
vt 0.9186 0.4003
vt 0.9523 0.3201
vt 0.9523 0.4003
vt 0.9927 0.1737
vt 0.9589 0.2539
vt 0.9589 0.1737
vt 0.6048 0.2165
vt 0.6048 0.1202
vt 0.9186 0.4801
vt 0.9523 0.4801
vt 0.2578 0.1226
vt 0.2598 0.0064
vt 0.5874 0.1209
vt 0.4643 0.0055
vt 0.5855 0.0046
vt 0.2957 0.2187
vt 0.2471 0.7752
vt 0.2563 0.2185
vt 0.9174 0.1495
vt 0.9512 0.0543
vt 0.9512 0.1495
vt 0.2973 0.1229
vt 0.4662 0.1217
vt 0.3473 0.2185
vt 0.1376 0.8180
vt 0.2173 0.8517
vt 0.1376 0.8517
vt 0.4678 0.2176
vt 0.3565 0.7752
vt 0.1266 0.7744
vt 0.0138 0.2167
vt 0.1358 0.2176
vt 0.6385 0.2165
vt 0.6048 0.7757
vt 0.9966 0.2607
vt 0.9628 0.8137
vt 0.9628 0.2607
vt 0.9966 0.8137
vt 0.9628 0.8959
vt 0.9129 0.0089
vt 0.9937 0.0426
vt 0.9129 0.0426
vt 0.5989 0.7735
vt 0.4770 0.7744
vt 0.0089 0.8556
vt 0.0047 0.7735
vt 0.5947 0.8556
vt 0.4783 0.8564
vt 0.6385 0.8580
vt 0.6048 0.9111
vt 0.6048 0.8580
vt 0.2194 0.8134
vt 0.1366 0.7796
vt 0.2194 0.7796
vt 0.3170 0.7755
vt 0.3079 0.2187
vt 0.6385 0.7757
vt 0.3063 0.1229
vt 0.2992 0.0066
vt 0.9186 0.5063
vt 0.9523 0.5063
vt 0.1253 0.8564
vt 0.0258 0.8892
vt 0.3184 0.8575
vt 0.4574 0.8493
vt 0.3759 0.8156
vt 0.4574 0.8156
vt 0.2866 0.7755
vt 0.2457 0.8572
vt 0.2449 0.9101
vt 0.2836 0.9531
vt 0.2549 0.9930
vt 0.2402 0.9916
vt 0.3587 0.9101
vt 0.3915 0.9886
vt 0.3634 0.9916
vt 0.4792 0.9092
vt 0.3579 0.8572
vt 0.9966 0.8959
vt 0.9628 0.9312
vt 0.2852 0.8575
vt 0.5778 0.8892
vt 0.3193 0.9103
vt 0.3759 0.7819
vt 0.4557 0.8156
vt 0.3759 0.8156
vt 0.9966 0.9312
vt 0.9628 0.9644
vt 0.6385 0.9111
vt 0.6048 0.9540
vt 0.9541 0.9068
vt 0.9204 0.8881
vt 0.9541 0.8881
vt 0.1244 0.9092
vt 0.1152 0.9579
vt 0.0871 0.9444
vt 0.9204 0.9475
vt 0.9204 0.9068
vt 0.2121 0.9886
vt 0.3487 0.9930
vt 0.3200 0.9531
vt 0.9966 0.9644
vt 0.9628 0.9929
vt 0.9541 0.9913
vt 0.9204 0.9722
vt 0.9541 0.9722
vt 0.9541 0.9475
vt 0.5519 0.9196
vt 0.5165 0.9444
vt 0.9204 0.8783
vt 0.9541 0.8489
vt 0.9541 0.8783
vt 0.6048 0.9965
vt 0.6385 0.9540
vt 0.6385 0.9965
vt 0.7126 0.7984
vt 0.8502 0.7978
vt 0.8509 0.7365
vt 0.7803 0.8013
vt 0.7464 0.8913
vt 0.7990 0.8902
vt 0.8996 0.9938
vt 0.8520 0.8914
vt 0.9249 0.7945
vt 0.8529 0.8772
vt 0.7416 0.3944
vt 0.8165 0.4129
vt 0.7946 0.9960
vt 0.6910 0.9144
vt 0.7991 0.9419
vt 0.6947 0.8609
vt 0.7885 0.6722
vt 0.6420 0.6272
vt 0.7148 0.6239
vt 0.6437 0.9171
vt 0.6943 0.9177
vt 0.7407 0.9975
vt 0.6868 0.4453
vt 0.7355 0.4432
vt 0.7735 0.5792
vt 0.7581 0.4952
vt 0.9331 0.5231
vt 0.6429 0.5636
vt 0.9445 0.5913
vt 0.7922 0.5650
vt 0.7487 0.4740
vt 0.7889 0.5713
vt 0.7384 0.3146
vt 0.6433 0.3819
vt 0.6660 0.3576
vt 0.6583 0.3746
vt 0.7441 0.2453
vt 0.7011 0.3533
vt 0.7010 0.3785
vt 0.6681 0.3773
vt 0.6854 0.3718
vt 0.6784 0.3154
vt 0.6524 0.0033
vt 0.7945 0.1274
vt 0.7049 0.2704
vt 0.6472 0.3184
vt 0.7162 0.1989
vt 0.7214 0.1363
vt 0.6734 0.2721
vt 0.0162 0.1209
vt 0.9934 0.0543
vt 0.9186 0.3201
vt 0.9927 0.2539
vt 0.9174 0.0543
vt 0.2173 0.8180
vt 0.9937 0.0089
vt 0.5898 0.2167
vt 0.1366 0.8134
vt 0.3759 0.8493
vt 0.2992 0.9954
vt 0.2843 0.9103
vt 0.4557 0.7819
vt 0.0517 0.9196
vt 0.1515 0.9745
vt 0.3044 0.9954
vt 0.9966 0.9929
vt 0.9204 0.9913
vt 0.4521 0.9745
vt 0.4884 0.9579
vt 0.9204 0.8489
vn -1.0000 0.0000 0.0000
vn 0.0000 0.0000 -1.0000
vn 1.0000 -0.0000 0.0000
vn 0.0000 -0.0000 1.0000
vn 0.0000 -1.0000 0.0000
vn 0.0000 1.0000 0.0000
vn -0.4752 -0.0000 0.8799
vn 0.4752 -0.0000 0.8799
vn 0.4752 0.0000 -0.8799
vn -0.4752 0.0000 -0.8799
vn 0.0000 0.0445 0.9990
vn 0.0000 0.3239 0.9461
vn 0.0000 0.4964 0.8681
vn 0.0000 0.9881 0.1535
vn -0.0000 0.9462 0.3236
vn 0.0000 0.6927 0.7213
vn -0.0000 0.8137 0.5812
vn -0.0000 0.8261 0.5635
vn 0.0000 0.9976 0.0686
vn 0.0000 -0.2460 -0.9693
vn 0.0000 0.9911 0.1335
usemtl None.002
f 1/1/1 2/2/1 3/3/1
f 4/4/2 5/5/2 2/6/2
f 6/7/3 7/8/3 5/9/3
f 8/10/4 3/11/4 7/12/4
f 5/13/5 3/14/5 2/15/5
f 6/7/6 9/16/6 8/17/6
f 9/18/4 10/19/4 11/20/4
f 1/21/6 12/22/6 4/23/6
f 8/17/6 11/24/6 1/21/6
f 4/23/6 13/25/6 6/7/6
f 14/26/5 15/27/5 16/28/5
f 12/29/2 16/30/2 13/31/2
f 13/32/3 17/33/3 9/34/3
f 11/35/1 14/36/1 12/37/1
f 15/38/3 18/39/3 19/40/3
f 16/28/5 19/41/5 17/42/5
f 10/43/5 20/44/5 14/26/5
f 17/42/5 21/45/5 10/43/5
f 18/46/6 22/47/6 23/48/6
f 21/49/1 24/50/1 20/51/1
f 19/52/4 23/53/4 21/54/4
f 20/55/2 25/56/2 15/57/2
f 26/58/3 27/59/3 28/60/3
f 24/61/6 26/62/6 25/63/6
f 25/63/6 28/64/6 18/46/6
f 23/48/6 29/65/6 24/61/6
f 30/66/5 31/67/5 27/68/5
f 22/69/1 32/70/1 29/71/1
f 28/72/4 33/73/4 22/74/4
f 29/75/2 30/76/2 26/77/2
f 31/78/4 34/79/4 35/80/4
f 33/81/5 36/82/5 32/83/5
f 27/68/5 35/84/5 33/81/5
f 32/83/5 37/85/5 30/66/5
f 38/86/6 39/87/6 40/88/6
f 36/89/2 38/90/2 37/91/2
f 37/92/3 40/93/3 31/94/3
f 35/95/1 41/96/1 36/97/1
f 42/98/1 43/99/1 44/100/1
f 34/101/6 44/102/6 41/103/6
f 40/88/6 42/104/6 34/101/6
f 41/103/6 45/105/6 38/86/6
f 46/106/5 47/107/5 48/108/5
f 39/109/4 48/110/4 42/111/4
f 44/112/2 49/113/2 45/114/2
f 45/114/3 46/115/3 39/116/3
f 50/117/3 51/118/3 52/119/3
f 43/120/5 50/121/5 49/122/5
f 49/122/5 52/123/5 46/106/5
f 48/108/5 53/124/5 43/120/5
f 51/125/5 54/126/5 55/127/5
f 47/128/1 56/129/1 53/130/1
f 52/131/4 55/132/4 47/133/4
f 53/134/2 57/135/2 50/136/2
f 58/137/2 59/138/2 60/139/2
f 56/140/5 61/141/5 57/142/5
f 57/142/5 62/143/5 51/125/5
f 55/127/5 63/144/5 56/140/5
f 64/145/6 65/146/6 59/147/6
f 60/148/3 65/149/3 66/150/3
f 67/151/1 64/152/1 58/153/1
f 66/154/4 68/155/4 67/156/4
f 54/157/7 69/158/7 67/159/7
f 54/160/1 58/153/1 63/161/1
f 61/162/3 66/150/3 62/163/3
f 63/144/5 70/164/5 61/141/5
f 71/165/1 72/166/1 69/167/1
f 67/168/6 73/169/6 66/170/6
f 62/143/5 71/171/5 54/126/5
f 66/172/8 74/173/8 62/174/8
f 75/175/1 76/176/1 77/177/1
f 60/178/6 75/179/6 58/180/6
f 61/181/9 78/182/9 60/183/9
f 58/184/10 77/185/10 63/186/10
f 76/187/2 79/188/2 80/189/2
f 77/190/5 80/191/5 70/164/5
f 78/192/6 81/193/6 75/179/6
f 70/194/3 79/195/3 78/196/3
f 82/197/4 72/198/4 83/199/4
f 74/200/5 83/201/5 71/171/5
f 69/202/6 84/203/6 73/169/6
f 73/204/3 82/205/3 74/206/3
f 85/207/1 86/208/1 87/209/1
f 88/210/2 89/211/2 86/212/2
f 90/213/3 91/214/3 92/215/3
f 93/216/4 94/217/4 91/218/4
f 92/219/5 94/220/5 95/221/5
f 96/222/6 93/223/6 90/224/6
f 88/210/2 97/225/2 98/226/2
f 99/227/5 95/221/5 87/228/5
f 100/229/3 92/215/3 99/230/3
f 101/231/1 95/232/1 94/233/1
f 97/234/3 102/235/3 103/236/3
f 90/237/4 104/238/4 96/239/4
f 98/240/3 103/236/3 100/229/3
f 96/241/1 105/242/1 85/207/1
f 106/243/6 107/244/6 102/245/6
f 104/246/1 106/247/1 105/242/1
f 107/248/3 108/249/3 109/250/3
f 110/251/2 111/252/2 97/225/2
f 108/253/4 112/254/4 113/255/4
f 114/256/11 115/257/11 112/254/11
f 109/258/5 113/259/5 104/260/5
f 104/246/1 112/261/1 116/262/1
f 107/248/3 117/263/3 114/264/3
f 116/262/1 115/265/1 118/266/1
f 119/267/2 120/268/2 121/269/2
f 116/270/2 122/271/2 107/272/2
f 105/242/1 123/273/1 110/274/1
f 123/275/2 121/269/2 111/252/2
f 85/207/1 110/274/1 88/276/1
f 100/229/3 109/250/3 90/213/3
f 103/236/3 107/248/3 109/250/3
f 98/240/3 99/230/3 89/277/3
f 89/278/5 87/228/5 86/279/5
f 96/241/1 87/209/1 95/232/1
f 122/280/3 124/281/3 117/263/3
f 106/247/1 119/282/1 123/273/1
f 102/283/4 125/284/4 106/285/4
f 111/286/3 126/287/3 102/235/3
f 127/288/3 122/280/3 126/287/3
f 128/289/3 129/290/3 130/291/3
f 131/292/1 132/293/1 133/294/1
f 134/295/1 125/296/1 118/266/1
f 117/297/12 135/298/12 115/257/12
f 121/299/3 127/288/3 126/287/3
f 118/266/1 135/300/1 134/295/1
f 125/296/1 136/301/1 119/282/1
f 118/302/5 126/303/5 122/304/5
f 124/305/13 137/306/13 135/298/13
f 136/307/2 128/308/2 120/268/2
f 132/309/14 130/310/14 133/311/14
f 138/312/3 139/313/3 140/314/3
f 132/309/15 141/315/15 142/316/15
f 127/288/3 142/317/3 138/312/3
f 133/294/1 143/318/1 144/319/1
f 145/320/16 146/321/16 137/306/16
f 146/322/17 139/323/17 147/324/17
f 147/324/18 141/315/18 148/325/18
f 137/326/1 146/327/1 134/295/1
f 129/328/19 149/329/19 143/330/19
f 150/331/20 144/332/20 149/333/20
f 143/330/21 130/310/21 129/328/21
f 1/1/1 4/334/1 2/2/1
f 4/4/2 6/335/2 5/5/2
f 6/7/3 8/17/3 7/8/3
f 8/10/4 1/336/4 3/11/4
f 5/13/5 7/337/5 3/14/5
f 6/7/6 13/25/6 9/16/6
f 9/18/4 17/338/4 10/19/4
f 1/21/6 11/24/6 12/22/6
f 8/17/6 9/16/6 11/24/6
f 4/23/6 12/22/6 13/25/6
f 14/26/5 20/44/5 15/27/5
f 12/29/2 14/339/2 16/30/2
f 13/32/3 16/340/3 17/33/3
f 11/35/1 10/341/1 14/36/1
f 15/38/3 25/342/3 18/39/3
f 16/28/5 15/27/5 19/41/5
f 10/43/5 21/45/5 20/44/5
f 17/42/5 19/41/5 21/45/5
f 18/46/6 28/64/6 22/47/6
f 21/49/1 23/343/1 24/50/1
f 19/52/4 18/344/4 23/53/4
f 20/55/2 24/345/2 25/56/2
f 26/58/3 30/346/3 27/59/3
f 24/61/6 29/65/6 26/62/6
f 25/63/6 26/62/6 28/64/6
f 23/48/6 22/47/6 29/65/6
f 30/66/5 37/85/5 31/67/5
f 22/69/1 33/347/1 32/70/1
f 28/72/4 27/348/4 33/73/4
f 29/75/2 32/349/2 30/76/2
f 31/78/4 40/350/4 34/79/4
f 33/81/5 35/84/5 36/82/5
f 27/68/5 31/67/5 35/84/5
f 32/83/5 36/82/5 37/85/5
f 38/86/6 45/105/6 39/87/6
f 36/89/2 41/351/2 38/90/2
f 37/92/3 38/90/3 40/93/3
f 35/95/1 34/352/1 41/96/1
f 42/98/1 48/353/1 43/99/1
f 34/101/6 42/104/6 44/102/6
f 40/88/6 39/87/6 42/104/6
f 41/103/6 44/102/6 45/105/6
f 46/106/5 52/123/5 47/107/5
f 39/109/4 46/354/4 48/110/4
f 44/112/2 43/355/2 49/113/2
f 45/114/3 49/113/3 46/115/3
f 50/117/3 57/356/3 51/118/3
f 43/120/5 53/124/5 50/121/5
f 49/122/5 50/121/5 52/123/5
f 48/108/5 47/107/5 53/124/5
f 51/125/5 62/143/5 54/126/5
f 47/128/1 55/357/1 56/129/1
f 52/131/4 51/358/4 55/132/4
f 53/134/2 56/359/2 57/135/2
f 58/137/2 64/360/2 59/138/2
f 56/140/5 63/144/5 61/141/5
f 57/142/5 61/141/5 62/143/5
f 55/127/5 54/126/5 63/144/5
f 64/145/6 68/361/6 65/146/6
f 60/148/3 59/362/3 65/149/3
f 67/151/1 68/363/1 64/152/1
f 66/154/4 65/364/4 68/155/4
f 54/157/7 71/365/7 69/158/7
f 54/160/1 67/151/1 58/153/1
f 61/162/3 60/148/3 66/150/3
f 63/144/5 77/190/5 70/164/5
f 71/165/1 83/366/1 72/166/1
f 67/168/6 69/202/6 73/169/6
f 62/143/5 74/200/5 71/171/5
f 66/367/8 73/368/8 74/369/8
f 75/175/1 81/370/1 76/176/1
f 60/178/6 78/192/6 75/179/6
f 61/181/9 70/371/9 78/182/9
f 58/372/10 75/373/10 77/374/10
f 76/187/2 81/375/2 79/188/2
f 77/190/5 76/376/5 80/191/5
f 78/192/6 79/377/6 81/193/6
f 70/194/3 80/378/3 79/195/3
f 82/197/4 84/379/4 72/198/4
f 74/200/5 82/380/5 83/201/5
f 69/202/6 72/381/6 84/203/6
f 73/204/3 84/382/3 82/205/3
f 85/207/1 88/276/1 86/208/1
f 88/210/2 98/226/2 89/211/2
f 90/213/3 93/383/3 91/214/3
f 93/216/4 101/384/4 94/217/4
f 92/219/5 91/385/5 94/220/5
f 96/222/6 101/386/6 93/223/6
f 88/210/2 110/251/2 97/225/2
f 99/227/5 92/219/5 95/221/5
f 100/229/3 90/213/3 92/215/3
f 101/231/1 96/241/1 95/232/1
f 97/234/3 111/286/3 102/235/3
f 90/237/4 109/387/4 104/238/4
f 98/240/3 97/234/3 103/236/3
f 96/241/1 104/246/1 105/242/1
f 106/243/6 116/388/6 107/244/6
f 104/246/1 116/262/1 106/247/1
f 107/248/3 114/264/3 108/249/3
f 110/251/2 123/275/2 111/252/2
f 108/253/4 114/256/4 112/254/4
f 114/256/11 117/297/11 115/257/11
f 109/258/5 108/389/5 113/259/5
f 104/246/1 113/390/1 112/261/1
f 107/248/3 122/280/3 117/263/3
f 116/262/1 112/261/1 115/265/1
f 119/267/2 136/307/2 120/268/2
f 116/270/2 118/391/2 122/271/2
f 105/242/1 106/247/1 123/273/1
f 123/275/2 119/267/2 121/269/2
f 85/207/1 105/242/1 110/274/1
f 100/229/3 103/236/3 109/250/3
f 103/236/3 102/235/3 107/248/3
f 98/240/3 100/229/3 99/230/3
f 89/278/5 99/227/5 87/228/5
f 96/241/1 85/207/1 87/209/1
f 122/280/3 138/312/3 124/281/3
f 106/247/1 125/296/1 119/282/1
f 102/283/4 126/392/4 125/284/4
f 111/286/3 121/299/3 126/287/3
f 127/288/3 138/312/3 122/280/3
f 130/291/3 127/288/3 128/289/3
f 128/289/3 150/393/3 129/290/3
f 127/288/3 120/394/3 128/289/3
f 131/292/1 134/295/1 132/293/1
f 134/295/1 131/292/1 125/296/1
f 117/297/12 124/305/12 135/298/12
f 121/299/3 120/394/3 127/288/3
f 118/266/1 115/265/1 135/300/1
f 125/296/1 131/292/1 136/301/1
f 118/302/5 125/395/5 126/303/5
f 124/305/13 145/320/13 137/306/13
f 136/307/2 144/332/2 128/308/2
f 132/309/14 142/316/14 130/310/14
f 145/396/3 124/281/3 138/312/3
f 138/312/3 142/317/3 141/397/3
f 141/397/3 139/313/3 138/312/3
f 140/314/3 145/396/3 138/312/3
f 132/309/15 148/325/15 141/315/15
f 127/288/3 130/291/3 142/317/3
f 144/319/1 136/301/1 131/292/1
f 131/292/1 133/294/1 144/319/1
f 143/318/1 149/398/1 144/319/1
f 145/320/16 140/399/16 146/321/16
f 146/322/17 140/400/17 139/323/17
f 147/324/18 139/323/18 141/315/18
f 132/293/1 134/295/1 148/401/1
f 135/300/1 137/326/1 134/295/1
f 146/327/1 147/402/1 134/295/1
f 148/401/1 134/295/1 147/402/1
f 129/328/19 150/403/19 149/329/19
f 150/331/20 128/308/20 144/332/20
f 143/330/21 133/311/21 130/310/21
